<?xml version="1.0" encoding="UTF-8"?>
<!-- Generator: visioncortex VTracer 0.6.4 -->
<svg version="1.1" xmlns="http://www.w3.org/2000/svg" width="168" height="168">
<path d="M0,0 L2,0 L2,1 L3,1 L3,2 L4,2 L4,3 L5,3 L5,4 L6,4 L6,5 L7,5 L7,6 L8,6 L8,7 L9,7 L9,8 L10,8 L10,9 L11,9 L11,10 L12,10 L12,11 L13,11 L13,12 L14,12 L14,13 L15,13 L15,14 L16,14 L16,15 L17,15 L17,16 L18,16 L18,17 L19,17 L19,18 L20,18 L20,19 L21,19 L21,20 L22,20 L22,21 L23,21 L23,22 L24,22 L24,23 L25,23 L25,24 L26,24 L26,25 L27,25 L27,26 L28,26 L28,27 L29,27 L29,28 L30,28 L30,29 L31,29 L31,30 L32,30 L32,31 L33,31 L33,32 L34,32 L34,33 L35,33 L35,34 L36,34 L36,35 L37,35 L37,36 L38,36 L38,37 L39,37 L39,38 L40,38 L40,39 L41,39 L41,40 L42,40 L42,41 L43,41 L43,42 L44,42 L44,43 L45,43 L45,44 L46,44 L46,45 L47,45 L47,46 L48,46 L48,47 L49,47 L49,48 L50,48 L50,49 L51,49 L51,50 L52,50 L52,51 L53,51 L53,52 L54,52 L54,53 L55,53 L55,54 L56,54 L56,56 L55,56 L55,57 L54,57 L54,58 L53,58 L53,59 L52,59 L52,60 L51,60 L51,61 L50,61 L50,62 L49,62 L49,63 L48,63 L48,64 L47,64 L47,63 L46,63 L46,62 L45,62 L45,61 L44,61 L44,60 L43,60 L43,59 L42,59 L42,58 L41,58 L41,57 L40,57 L40,56 L39,56 L39,55 L38,55 L38,54 L37,54 L37,53 L36,53 L36,52 L35,52 L35,51 L34,51 L34,50 L33,50 L33,49 L32,49 L32,48 L31,48 L31,47 L30,47 L30,46 L29,46 L29,45 L28,45 L28,44 L27,44 L27,43 L26,43 L26,42 L25,42 L25,41 L24,41 L24,40 L23,40 L23,39 L22,39 L22,38 L21,38 L21,37 L20,37 L20,36 L19,36 L19,35 L18,35 L18,34 L17,34 L17,33 L16,33 L16,32 L15,32 L15,31 L14,31 L14,30 L13,30 L13,29 L12,29 L12,28 L11,28 L11,27 L10,27 L10,26 L9,26 L9,25 L8,25 L8,111 L-6,111 L-6,25 L-7,25 L-7,26 L-8,26 L-8,27 L-9,27 L-9,28 L-10,28 L-10,29 L-11,29 L-11,30 L-12,30 L-12,31 L-13,31 L-13,32 L-14,32 L-14,33 L-15,33 L-15,34 L-16,34 L-16,35 L-17,35 L-17,36 L-18,36 L-18,37 L-19,37 L-19,38 L-20,38 L-20,39 L-21,39 L-21,40 L-22,40 L-22,41 L-23,41 L-23,42 L-24,42 L-24,43 L-25,43 L-25,44 L-26,44 L-26,45 L-27,45 L-27,46 L-28,46 L-28,47 L-29,47 L-29,48 L-30,48 L-30,49 L-31,49 L-31,50 L-32,50 L-32,51 L-33,51 L-33,52 L-34,52 L-34,53 L-35,53 L-35,54 L-36,54 L-36,55 L-37,55 L-37,56 L-38,56 L-38,57 L-39,57 L-39,58 L-40,58 L-40,59 L-41,59 L-41,60 L-42,60 L-42,61 L-43,61 L-43,62 L-44,62 L-44,63 L-45,63 L-45,64 L-46,64 L-46,63 L-47,63 L-47,62 L-48,62 L-48,61 L-49,61 L-49,60 L-50,60 L-50,59 L-51,59 L-51,58 L-52,58 L-52,57 L-53,57 L-53,56 L-54,56 L-54,54 L-53,54 L-53,53 L-52,53 L-52,52 L-51,52 L-51,51 L-50,51 L-50,50 L-49,50 L-49,49 L-48,49 L-48,48 L-47,48 L-47,47 L-46,47 L-46,46 L-45,46 L-45,45 L-44,45 L-44,44 L-43,44 L-43,43 L-42,43 L-42,42 L-41,42 L-41,41 L-40,41 L-40,40 L-39,40 L-39,39 L-38,39 L-38,38 L-37,38 L-37,37 L-36,37 L-36,36 L-35,36 L-35,35 L-34,35 L-34,34 L-33,34 L-33,33 L-32,33 L-32,32 L-31,32 L-31,31 L-30,31 L-30,30 L-29,30 L-29,29 L-28,29 L-28,28 L-27,28 L-27,27 L-26,27 L-26,26 L-25,26 L-25,25 L-24,25 L-24,24 L-23,24 L-23,23 L-22,23 L-22,22 L-21,22 L-21,21 L-20,21 L-20,20 L-19,20 L-19,19 L-18,19 L-18,18 L-17,18 L-17,17 L-16,17 L-16,16 L-15,16 L-15,15 L-14,15 L-14,14 L-13,14 L-13,13 L-12,13 L-12,12 L-11,12 L-11,11 L-10,11 L-10,10 L-9,10 L-9,9 L-8,9 L-8,8 L-7,8 L-7,7 L-6,7 L-6,6 L-5,6 L-5,5 L-4,5 L-4,4 L-3,4 L-3,3 L-2,3 L-2,2 L-1,2 L-1,1 L0,1 Z " fill="#FFFFFF" transform="translate(83,29)"/>
<path d="M0,0 L1,0 L1,1 L0,1 Z M1,1 L2,1 L2,2 L1,2 Z M2,2 L3,2 L3,3 L2,3 Z M3,3 L4,3 L4,4 L3,4 Z M4,4 L5,4 L5,5 L4,5 Z M5,5 L6,5 L6,6 L5,6 Z M6,6 L7,6 L7,7 L6,7 Z M7,7 L8,7 L8,8 L7,8 Z M8,8 L9,8 L9,9 L8,9 Z M9,9 L10,9 L10,10 L9,10 Z M10,10 L11,10 L11,11 L10,11 Z M11,11 L12,11 L12,12 L11,12 Z M12,12 L13,12 L13,13 L12,13 Z M13,13 L14,13 L14,14 L13,14 Z M14,14 L15,14 L15,15 L14,15 Z M15,15 L16,15 L16,16 L15,16 Z M16,16 L17,16 L17,17 L16,17 Z M17,17 L18,17 L18,18 L17,18 Z M18,18 L19,18 L19,19 L18,19 Z M19,19 L20,19 L20,20 L19,20 Z M20,20 L21,20 L21,21 L20,21 Z M21,21 L22,21 L22,22 L21,22 Z M22,22 L23,22 L23,23 L22,23 Z M23,23 L24,23 L24,24 L23,24 Z M24,24 L25,24 L25,25 L24,25 Z M25,25 L26,25 L26,26 L25,26 Z M26,26 L27,26 L27,27 L26,27 Z M27,27 L28,27 L28,28 L27,28 Z M28,28 L29,28 L29,29 L28,29 Z M29,29 L30,29 L30,30 L29,30 Z M30,30 L31,30 L31,31 L30,31 Z M31,31 L32,31 L32,32 L31,32 Z M32,32 L33,32 L33,33 L32,33 Z M33,33 L34,33 L34,34 L33,34 Z M34,34 L35,34 L35,35 L34,35 Z M35,35 L36,35 L36,36 L35,36 Z M36,36 L37,36 L37,37 L36,37 Z M37,37 L38,37 L38,38 L37,38 Z M38,38 L39,38 L39,39 L38,39 Z M39,39 L40,39 L40,40 L39,40 Z M40,40 L41,40 L41,41 L40,41 Z M41,41 L42,41 L42,42 L41,42 Z M42,42 L43,42 L43,43 L42,43 Z M43,43 L44,43 L44,44 L43,44 Z M44,44 L45,44 L45,45 L44,45 Z M45,45 L46,45 L46,46 L45,46 Z M46,46 L47,46 L47,47 L46,47 Z M47,47 L48,47 L48,48 L47,48 Z M48,48 L49,48 L49,49 L48,49 Z M49,49 L50,49 L50,50 L49,50 Z M50,50 L51,50 L51,51 L50,51 Z M51,51 L52,51 L52,52 L51,52 Z M52,52 L53,52 L53,53 L52,53 Z M53,53 L54,53 L54,54 L53,54 Z M54,54 L55,54 L55,55 L54,55 Z M55,55 L56,55 L56,56 L55,56 Z " fill="#FFFFFF" opacity="0.5058824" transform="translate(84,28)"/>
<path d="M0,0 L1,0 L1,1 L0,1 Z M1,1 L2,1 L2,2 L1,2 Z M2,2 L3,2 L3,3 L2,3 Z M3,3 L4,3 L4,4 L3,4 Z M4,4 L5,4 L5,5 L4,5 Z M5,5 L6,5 L6,6 L5,6 Z M6,6 L7,6 L7,7 L6,7 Z M7,7 L8,7 L8,8 L7,8 Z M8,8 L9,8 L9,9 L8,9 Z M9,9 L10,9 L10,10 L9,10 Z M10,10 L11,10 L11,11 L10,11 Z M11,11 L12,11 L12,12 L11,12 Z M12,12 L13,12 L13,13 L12,13 Z M13,13 L14,13 L14,14 L13,14 Z M14,14 L15,14 L15,15 L14,15 Z M15,15 L16,15 L16,16 L15,16 Z M16,16 L17,16 L17,17 L16,17 Z M17,17 L18,17 L18,18 L17,18 Z M18,18 L19,18 L19,19 L18,19 Z M19,19 L20,19 L20,20 L19,20 Z M20,20 L21,20 L21,21 L20,21 Z M21,21 L22,21 L22,22 L21,22 Z M22,22 L23,22 L23,23 L22,23 Z M23,23 L24,23 L24,24 L23,24 Z M24,24 L25,24 L25,25 L24,25 Z M25,25 L26,25 L26,26 L25,26 Z M26,26 L27,26 L27,27 L26,27 Z M27,27 L28,27 L28,28 L27,28 Z M28,28 L29,28 L29,29 L28,29 Z M29,29 L30,29 L30,30 L29,30 Z M30,30 L31,30 L31,31 L30,31 Z M31,31 L32,31 L32,32 L31,32 Z M32,32 L33,32 L33,33 L32,33 Z M33,33 L34,33 L34,34 L33,34 Z M34,34 L35,34 L35,35 L34,35 Z M35,35 L36,35 L36,36 L35,36 Z M36,36 L37,36 L37,37 L36,37 Z M37,37 L38,37 L38,38 L37,38 Z M38,38 L39,38 L39,39 L38,39 Z " fill="#FFFFFF" opacity="0.98039216" transform="translate(91,54)"/>
<path d="M0,0 L1,0 L1,1 L0,1 Z M-1,1 L0,1 L0,2 L-1,2 Z M-2,2 L-1,2 L-1,3 L-2,3 Z M-3,3 L-2,3 L-2,4 L-3,4 Z M-4,4 L-3,4 L-3,5 L-4,5 Z M-5,5 L-4,5 L-4,6 L-5,6 Z M-6,6 L-5,6 L-5,7 L-6,7 Z M-7,7 L-6,7 L-6,8 L-7,8 Z M-8,8 L-7,8 L-7,9 L-8,9 Z M-9,9 L-8,9 L-8,10 L-9,10 Z M-10,10 L-9,10 L-9,11 L-10,11 Z M-11,11 L-10,11 L-10,12 L-11,12 Z M-12,12 L-11,12 L-11,13 L-12,13 Z M-13,13 L-12,13 L-12,14 L-13,14 Z M-14,14 L-13,14 L-13,15 L-14,15 Z M-15,15 L-14,15 L-14,16 L-15,16 Z M-16,16 L-15,16 L-15,17 L-16,17 Z M-17,17 L-16,17 L-16,18 L-17,18 Z M-18,18 L-17,18 L-17,19 L-18,19 Z M-19,19 L-18,19 L-18,20 L-19,20 Z M-20,20 L-19,20 L-19,21 L-20,21 Z M-21,21 L-20,21 L-20,22 L-21,22 Z M-22,22 L-21,22 L-21,23 L-22,23 Z M-23,23 L-22,23 L-22,24 L-23,24 Z M-24,24 L-23,24 L-23,25 L-24,25 Z M-25,25 L-24,25 L-24,26 L-25,26 Z M-26,26 L-25,26 L-25,27 L-26,27 Z M-27,27 L-26,27 L-26,28 L-27,28 Z M-28,28 L-27,28 L-27,29 L-28,29 Z M-29,29 L-28,29 L-28,30 L-29,30 Z M-30,30 L-29,30 L-29,31 L-30,31 Z M-31,31 L-30,31 L-30,32 L-31,32 Z M-32,32 L-31,32 L-31,33 L-32,33 Z M-33,33 L-32,33 L-32,34 L-33,34 Z M-34,34 L-33,34 L-33,35 L-34,35 Z M-35,35 L-34,35 L-34,36 L-35,36 Z M-36,36 L-35,36 L-35,37 L-36,37 Z M-37,37 L-36,37 L-36,38 L-37,38 Z M-38,38 L-37,38 L-37,39 L-38,39 Z M-39,39 L-38,39 L-38,40 L-39,40 Z M-40,40 L-39,40 L-39,41 L-40,41 Z M-41,41 L-40,41 L-40,42 L-41,42 Z M-42,42 L-41,42 L-41,43 L-42,43 Z M-43,43 L-42,43 L-42,44 L-43,44 Z M-44,44 L-43,44 L-43,45 L-44,45 Z M-45,45 L-44,45 L-44,46 L-45,46 Z M-46,46 L-45,46 L-45,47 L-46,47 Z M-47,47 L-46,47 L-46,48 L-47,48 Z M-48,48 L-47,48 L-47,49 L-48,49 Z M-49,49 L-48,49 L-48,50 L-49,50 Z M-50,50 L-49,50 L-49,51 L-50,51 Z M-51,51 L-50,51 L-50,52 L-51,52 Z M-52,52 L-51,52 L-51,53 L-52,53 Z M-53,53 L-52,53 L-52,54 L-53,54 Z M-54,54 L-53,54 L-53,55 L-54,55 Z M-55,55 L-54,55 L-54,56 L-55,56 Z " fill="#FFFFFF" opacity="0.5019608" transform="translate(83,28)"/>
<path d="M0,0 L1,0 L1,1 L0,1 Z M-1,1 L0,1 L0,2 L-1,2 Z M-2,2 L-1,2 L-1,3 L-2,3 Z M-3,3 L-2,3 L-2,4 L-3,4 Z M-4,4 L-3,4 L-3,5 L-4,5 Z M-5,5 L-4,5 L-4,6 L-5,6 Z M-6,6 L-5,6 L-5,7 L-6,7 Z M-7,7 L-6,7 L-6,8 L-7,8 Z M-8,8 L-7,8 L-7,9 L-8,9 Z M-9,9 L-8,9 L-8,10 L-9,10 Z M-10,10 L-9,10 L-9,11 L-10,11 Z M-11,11 L-10,11 L-10,12 L-11,12 Z M-12,12 L-11,12 L-11,13 L-12,13 Z M-13,13 L-12,13 L-12,14 L-13,14 Z M-14,14 L-13,14 L-13,15 L-14,15 Z M-15,15 L-14,15 L-14,16 L-15,16 Z M-16,16 L-15,16 L-15,17 L-16,17 Z M-17,17 L-16,17 L-16,18 L-17,18 Z M-18,18 L-17,18 L-17,19 L-18,19 Z M-19,19 L-18,19 L-18,20 L-19,20 Z M-20,20 L-19,20 L-19,21 L-20,21 Z M-21,21 L-20,21 L-20,22 L-21,22 Z M-22,22 L-21,22 L-21,23 L-22,23 Z M-23,23 L-22,23 L-22,24 L-23,24 Z M-24,24 L-23,24 L-23,25 L-24,25 Z M-25,25 L-24,25 L-24,26 L-25,26 Z M-26,26 L-25,26 L-25,27 L-26,27 Z M-27,27 L-26,27 L-26,28 L-27,28 Z M-28,28 L-27,28 L-27,29 L-28,29 Z M-29,29 L-28,29 L-28,30 L-29,30 Z M-30,30 L-29,30 L-29,31 L-30,31 Z M-31,31 L-30,31 L-30,32 L-31,32 Z M-32,32 L-31,32 L-31,33 L-32,33 Z M-33,33 L-32,33 L-32,34 L-33,34 Z M-34,34 L-33,34 L-33,35 L-34,35 Z M-35,35 L-34,35 L-34,36 L-35,36 Z M-36,36 L-35,36 L-35,37 L-36,37 Z M-37,37 L-36,37 L-36,38 L-37,38 Z M-38,38 L-37,38 L-37,39 L-38,39 Z M-39,39 L-38,39 L-38,40 L-39,40 Z M-40,40 L-39,40 L-39,41 L-40,41 Z M-41,41 L-40,41 L-40,42 L-41,42 Z M-42,42 L-41,42 L-41,43 L-42,43 Z M-43,43 L-42,43 L-42,44 L-43,44 Z M-44,44 L-43,44 L-43,45 L-44,45 Z M-45,45 L-44,45 L-44,46 L-45,46 Z M-46,46 L-45,46 L-45,47 L-46,47 Z M-47,47 L-46,47 L-46,48 L-47,48 Z M-48,48 L-47,48 L-47,49 L-48,49 Z M-49,49 L-48,49 L-48,50 L-49,50 Z M-50,50 L-49,50 L-49,51 L-50,51 Z M-51,51 L-50,51 L-50,52 L-51,52 Z M-52,52 L-51,52 L-51,53 L-52,53 Z M-53,53 L-52,53 L-52,54 L-53,54 Z M-54,54 L-53,54 L-53,55 L-54,55 Z " fill="#FFFFFF" transform="translate(83,29)"/>
<path d="M0,0 L1,0 L1,1 L0,1 Z M-1,1 L0,1 L0,2 L-1,2 Z M-2,2 L-1,2 L-1,3 L-2,3 Z M-3,3 L-2,3 L-2,4 L-3,4 Z M-4,4 L-3,4 L-3,5 L-4,5 Z M-5,5 L-4,5 L-4,6 L-5,6 Z M-6,6 L-5,6 L-5,7 L-6,7 Z M-7,7 L-6,7 L-6,8 L-7,8 Z M-8,8 L-7,8 L-7,9 L-8,9 Z M-9,9 L-8,9 L-8,10 L-9,10 Z M-10,10 L-9,10 L-9,11 L-10,11 Z M-11,11 L-10,11 L-10,12 L-11,12 Z M-12,12 L-11,12 L-11,13 L-12,13 Z M-13,13 L-12,13 L-12,14 L-13,14 Z M-14,14 L-13,14 L-13,15 L-14,15 Z M-15,15 L-14,15 L-14,16 L-15,16 Z M-16,16 L-15,16 L-15,17 L-16,17 Z M-17,17 L-16,17 L-16,18 L-17,18 Z M-18,18 L-17,18 L-17,19 L-18,19 Z M-19,19 L-18,19 L-18,20 L-19,20 Z M-20,20 L-19,20 L-19,21 L-20,21 Z M-21,21 L-20,21 L-20,22 L-21,22 Z M-22,22 L-21,22 L-21,23 L-22,23 Z M-23,23 L-22,23 L-22,24 L-23,24 Z M-24,24 L-23,24 L-23,25 L-24,25 Z M-25,25 L-24,25 L-24,26 L-25,26 Z M-26,26 L-25,26 L-25,27 L-26,27 Z M-27,27 L-26,27 L-26,28 L-27,28 Z M-28,28 L-27,28 L-27,29 L-28,29 Z M-29,29 L-28,29 L-28,30 L-29,30 Z M-30,30 L-29,30 L-29,31 L-30,31 Z M-31,31 L-30,31 L-30,32 L-31,32 Z M-32,32 L-31,32 L-31,33 L-32,33 Z M-33,33 L-32,33 L-32,34 L-33,34 Z M-34,34 L-33,34 L-33,35 L-34,35 Z M-35,35 L-34,35 L-34,36 L-35,36 Z M-36,36 L-35,36 L-35,37 L-36,37 Z M-37,37 L-36,37 L-36,38 L-37,38 Z M-38,38 L-37,38 L-37,39 L-38,39 Z " fill="#FFFFFF" opacity="0.29411766" transform="translate(76,55)"/>
<path d="M0,0 L1,0 L1,1 L0,1 Z M-1,1 L0,1 L0,2 L-1,2 Z M-2,2 L-1,2 L-1,3 L-2,3 Z M-3,3 L-2,3 L-2,4 L-3,4 Z M-4,4 L-3,4 L-3,5 L-4,5 Z M-5,5 L-4,5 L-4,6 L-5,6 Z M-6,6 L-5,6 L-5,7 L-6,7 Z M-7,7 L-6,7 L-6,8 L-7,8 Z M-8,8 L-7,8 L-7,9 L-8,9 Z M-9,9 L-8,9 L-8,10 L-9,10 Z M-10,10 L-9,10 L-9,11 L-10,11 Z M-11,11 L-10,11 L-10,12 L-11,12 Z M-12,12 L-11,12 L-11,13 L-12,13 Z M-13,13 L-12,13 L-12,14 L-13,14 Z M-14,14 L-13,14 L-13,15 L-14,15 Z M-15,15 L-14,15 L-14,16 L-15,16 Z M-16,16 L-15,16 L-15,17 L-16,17 Z M-17,17 L-16,17 L-16,18 L-17,18 Z M-18,18 L-17,18 L-17,19 L-18,19 Z M-19,19 L-18,19 L-18,20 L-19,20 Z M-20,20 L-19,20 L-19,21 L-20,21 Z M-21,21 L-20,21 L-20,22 L-21,22 Z M-22,22 L-21,22 L-21,23 L-22,23 Z M-23,23 L-22,23 L-22,24 L-23,24 Z M-24,24 L-23,24 L-23,25 L-24,25 Z M-25,25 L-24,25 L-24,26 L-25,26 Z M-26,26 L-25,26 L-25,27 L-26,27 Z M-27,27 L-26,27 L-26,28 L-27,28 Z M-28,28 L-27,28 L-27,29 L-28,29 Z M-29,29 L-28,29 L-28,30 L-29,30 Z M-30,30 L-29,30 L-29,31 L-30,31 Z M-31,31 L-30,31 L-30,32 L-31,32 Z M-32,32 L-31,32 L-31,33 L-32,33 Z M-33,33 L-32,33 L-32,34 L-33,34 Z M-34,34 L-33,34 L-33,35 L-34,35 Z M-35,35 L-34,35 L-34,36 L-35,36 Z M-36,36 L-35,36 L-35,37 L-36,37 Z M-37,37 L-36,37 L-36,38 L-37,38 Z M-38,38 L-37,38 L-37,39 L-38,39 Z " fill="#FFFFFF" opacity="0.9764706" transform="translate(76,54)"/>
<path d="M0,0 L1,0 L1,1 L0,1 Z M1,1 L2,1 L2,2 L1,2 Z M2,2 L3,2 L3,3 L2,3 Z M3,3 L4,3 L4,4 L3,4 Z M4,4 L5,4 L5,5 L4,5 Z M5,5 L6,5 L6,6 L5,6 Z M6,6 L7,6 L7,7 L6,7 Z M7,7 L8,7 L8,8 L7,8 Z M8,8 L9,8 L9,9 L8,9 Z M9,9 L10,9 L10,10 L9,10 Z M10,10 L11,10 L11,11 L10,11 Z M11,11 L12,11 L12,12 L11,12 Z M12,12 L13,12 L13,13 L12,13 Z M13,13 L14,13 L14,14 L13,14 Z M14,14 L15,14 L15,15 L14,15 Z M15,15 L16,15 L16,16 L15,16 Z M16,16 L17,16 L17,17 L16,17 Z M17,17 L18,17 L18,18 L17,18 Z M18,18 L19,18 L19,19 L18,19 Z " fill="#FFFFFF" opacity="0.3019608" transform="translate(101,65)"/>
<path d="M0,0 L1,0 L1,1 L0,1 Z M1,1 L2,1 L2,2 L1,2 Z M2,2 L3,2 L3,3 L2,3 Z M3,3 L4,3 L4,4 L3,4 Z M4,4 L5,4 L5,5 L4,5 Z M5,5 L6,5 L6,6 L5,6 Z M6,6 L7,6 L7,7 L6,7 Z M7,7 L8,7 L8,8 L7,8 Z M8,8 L9,8 L9,9 L8,9 Z M9,9 L10,9 L10,10 L9,10 Z " fill="#FFFFFF" opacity="0.30588236" transform="translate(120,84)"/>
<path d="M0,0 L1,0 L1,1 L0,1 Z M1,1 L2,1 L2,2 L1,2 Z M2,2 L3,2 L3,3 L2,3 Z M3,3 L4,3 L4,4 L3,4 Z M4,4 L5,4 L5,5 L4,5 Z M5,5 L6,5 L6,6 L5,6 Z M6,6 L7,6 L7,7 L6,7 Z M7,7 L8,7 L8,8 L7,8 Z M8,8 L9,8 L9,9 L8,9 Z M9,9 L10,9 L10,10 L9,10 Z " fill="#FFFFFF" opacity="0.29803923" transform="translate(91,55)"/>
<path d="M0,0 L1,0 L1,1 L0,1 Z M-1,1 L0,1 L0,2 L-1,2 Z M-2,2 L-1,2 L-1,3 L-2,3 Z M-3,3 L-2,3 L-2,4 L-3,4 Z M-4,4 L-3,4 L-3,5 L-4,5 Z " fill="#FFFFFF" opacity="0.003921569" transform="translate(139,85)"/>
<path d="M0,0 L1,0 L1,1 L0,1 Z M1,1 L2,1 L2,2 L1,2 Z M2,2 L3,2 L3,3 L2,3 Z M3,3 L4,3 L4,4 L3,4 Z M4,4 L5,4 L5,5 L4,5 Z " fill="#FFFFFF" opacity="0.003921569" transform="translate(28,85)"/>
<path d="M0,0 L1,0 L1,1 L0,1 Z " fill="#FFFFFF" opacity="0.6392157" transform="translate(36,92)"/>
<path d="M0,0 L1,0 L1,1 L0,1 Z M-1,1 L0,1 L0,2 L-1,2 Z M-2,2 L-1,2 L-1,3 L-2,3 Z " fill="#FFFFFF" opacity="0.007843138" transform="translate(134,90)"/>
<path d="M0,0 L1,0 L1,1 L0,1 Z M1,1 L2,1 L2,2 L1,2 Z " fill="#FFFFFF" opacity="0.007843138" transform="translate(33,90)"/>
<path d="M0,0 L1,0 L1,1 L0,1 Z " fill="#FFFFFF" opacity="0.011764706" transform="translate(131,93)"/>
<path d="M0,0 L1,0 L1,1 L0,1 Z " fill="#FFFFFF" opacity="0.61960787" transform="translate(130,93)"/>
<path d="M0,0 L1,0 L1,1 L0,1 Z " fill="#FFFFFF" opacity="0.627451" transform="translate(37,93)"/>
<path d="M0,0 L1,0 L1,1 L0,1 Z " fill="#FFFFFF" opacity="0.015686275" transform="translate(36,93)"/>
<path d="M0,0 L1,0 L1,1 L0,1 Z " fill="#FFFFFF" opacity="0.627451" transform="translate(131,92)"/>
<path d="M0,0 L1,0 L1,1 L0,1 Z " fill="#FFFFFF" opacity="0.011764706" transform="translate(35,92)"/>
<path d="M0,0 L1,0 L1,1 L0,1 Z " fill="#FFFFFF" opacity="0.6156863" transform="translate(132,91)"/>
<path d="M0,0 L1,0 L1,1 L0,1 Z " fill="#FFFFFF" opacity="0.627451" transform="translate(35,91)"/>
<path d="M0,0 L1,0 L1,1 L0,1 Z " fill="#FFFFFF" opacity="0.6" transform="translate(133,90)"/>
<path d="M0,0 L1,0 L1,1 L0,1 Z " fill="#FFFFFF" opacity="0.60784316" transform="translate(34,90)"/>
<path d="M0,0 L1,0 L1,1 L0,1 Z " fill="#FFFFFF" opacity="0.5882353" transform="translate(134,89)"/>
<path d="M0,0 L1,0 L1,1 L0,1 Z " fill="#FFFFFF" opacity="0.59607846" transform="translate(33,89)"/>
<path d="M0,0 L1,0 L1,1 L0,1 Z " fill="#FFFFFF" opacity="0.57254905" transform="translate(135,88)"/>
<path d="M0,0 L1,0 L1,1 L0,1 Z " fill="#FFFFFF" opacity="0.5803922" transform="translate(32,88)"/>
<path d="M0,0 L1,0 L1,1 L0,1 Z " fill="#FFFFFF" opacity="0.5568628" transform="translate(136,87)"/>
<path d="M0,0 L1,0 L1,1 L0,1 Z " fill="#FFFFFF" opacity="0.5647059" transform="translate(31,87)"/>
<path d="M0,0 L1,0 L1,1 L0,1 Z " fill="#FFFFFF" opacity="0.5411765" transform="translate(137,86)"/>
<path d="M0,0 L1,0 L1,1 L0,1 Z " fill="#FFFFFF" opacity="0.54509807" transform="translate(30,86)"/>
<path d="M0,0 L1,0 L1,1 L0,1 Z " fill="#FFFFFF" opacity="0.5254902" transform="translate(138,85)"/>
<path d="M0,0 L1,0 L1,1 L0,1 Z " fill="#FFFFFF" opacity="0.5294118" transform="translate(29,85)"/>
<path d="M0,0 L1,0 L1,1 L0,1 Z " fill="#FFFFFF" opacity="0.50980395" transform="translate(139,84)"/>
<path d="M0,0 L1,0 L1,1 L0,1 Z " fill="#FFFFFF" opacity="0.5137255" transform="translate(28,84)"/>
</svg>
